<svg width="57" height="57" viewBox="0 0 57 57" fill="none" xmlns="http://www.w3.org/2000/svg">
<circle cx="28.5" cy="28.5" r="28.5" fill="#41522E" fill-opacity="0.05"/>
<path d="M41.5625 41.2656H15.4375C14.9506 41.2656 14.5469 40.8619 14.5469 40.375C14.5469 39.8881 14.9506 39.4844 15.4375 39.4844H41.5625C42.0494 39.4844 42.4531 39.8881 42.4531 40.375C42.4531 40.8619 42.0494 41.2656 41.5625 41.2656Z" fill="#292D32"/>
<path d="M37.739 41.2776C37.2521 41.2776 36.8484 40.8738 36.8484 40.387V35.0907C36.8484 34.6038 37.2521 34.2001 37.739 34.2001C38.2259 34.2001 38.6296 34.6038 38.6296 35.0907V40.387C38.6296 40.8738 38.2378 41.2776 37.739 41.2776Z" fill="#292D32"/>
<path d="M37.7627 35.9812C35.827 35.9812 34.2595 34.4137 34.2595 32.4781V29.7825C34.2595 27.8469 35.827 26.2794 37.7627 26.2794C39.6983 26.2794 41.2658 27.8469 41.2658 29.7825V32.4781C41.2658 34.4137 39.6983 35.9812 37.7627 35.9812ZM37.7627 28.0725C36.8127 28.0725 36.0408 28.8444 36.0408 29.7944V32.49C36.0408 33.44 36.8127 34.2118 37.7627 34.2118C38.7127 34.2118 39.4846 33.44 39.4846 32.49V29.7944C39.4846 28.8444 38.7127 28.0725 37.7627 28.0725Z" fill="#292D32"/>
<path d="M31.231 41.2656C30.7441 41.2656 30.3404 40.8619 30.3404 40.375V21.4107C30.3404 19.5226 29.5448 18.715 27.6923 18.715H20.2942C18.4298 18.715 17.6223 19.5226 17.6223 21.4107V40.375C17.6223 40.8619 17.2186 41.2656 16.7317 41.2656C16.2448 41.2656 15.8411 40.8619 15.8411 40.375V21.4107C15.8411 18.525 17.4204 16.9338 20.2942 16.9338H27.6923C30.5542 16.9338 32.1216 18.525 32.1216 21.4107V40.375C32.1216 40.8619 31.7179 41.2656 31.231 41.2656Z" fill="#292D32"/>
<path d="M27.0153 24.9375H21.1372C20.6503 24.9375 20.2466 24.5337 20.2466 24.0469C20.2466 23.56 20.6503 23.1562 21.1372 23.1562H27.0153C27.5022 23.1562 27.906 23.56 27.906 24.0469C27.906 24.5337 27.5022 24.9375 27.0153 24.9375Z" fill="#292D32"/>
<path d="M27.0153 29.3906H21.1372C20.6503 29.3906 20.2466 28.9869 20.2466 28.5C20.2466 28.0131 20.6503 27.6094 21.1372 27.6094H27.0153C27.5022 27.6094 27.906 28.0131 27.906 28.5C27.906 28.9869 27.5022 29.3906 27.0153 29.3906Z" fill="#292D32"/>
<path d="M24.0469 41.2656C23.56 41.2656 23.1562 40.8619 23.1562 40.375V35.9219C23.1562 35.435 23.56 35.0312 24.0469 35.0312C24.5337 35.0312 24.9375 35.435 24.9375 35.9219V40.375C24.9375 40.8619 24.5337 41.2656 24.0469 41.2656Z" fill="#292D32"/>
</svg>
