<svg width="17" height="16" viewBox="0 0 17 16" fill="none" xmlns="http://www.w3.org/2000/svg">
<path d="M8.16659 14.5C4.39992 14.5 1.33325 11.4333 1.33325 7.66668C1.33325 3.90001 4.39992 0.833344 8.16659 0.833344C11.9333 0.833344 14.9999 3.90001 14.9999 7.66668C14.9999 11.4333 11.9333 14.5 8.16659 14.5ZM8.16659 1.83334C4.94659 1.83334 2.33325 4.45334 2.33325 7.66668C2.33325 10.88 4.94659 13.5 8.16659 13.5C11.3866 13.5 13.9999 10.88 13.9999 7.66668C13.9999 4.45334 11.3866 1.83334 8.16659 1.83334Z" fill="#292D32"/>
<path d="M15.1666 15.1667C15.04 15.1667 14.9133 15.12 14.8133 15.02L13.48 13.6867C13.2866 13.4933 13.2866 13.1733 13.48 12.98C13.6733 12.7867 13.9933 12.7867 14.1866 12.98L15.52 14.3133C15.7133 14.5067 15.7133 14.8267 15.52 15.02C15.42 15.12 15.2933 15.1667 15.1666 15.1667Z" fill="#292D32"/>
</svg>
